<?xml version="1.0" encoding="UTF-8"?>
<svg id="Layer_1" xmlns="http://www.w3.org/2000/svg" version="1.1" viewBox="0 0 1113.71 190.57">
  <!-- Generator: Adobe Illustrator 29.2.1, SVG Export Plug-In . SVG Version: 2.1.0 Build 116)  -->
  <defs>
    <style>
      .st0 {
        isolation: isolate;
      }

      .st1 {
        fill: #f2f3f4;
      }
    </style>
  </defs>
  <g>
    <g class="st0">
      <g class="st0">
        <path class="st1" d="M39.38,63.77h-16.14v32.49h-8.01V16h25.67c15.81,0,22.85,7.37,22.85,23.39,0,13.54-4.98,21.55-16.14,23.83l15.16,33.03h-8.56l-14.84-32.49ZM40.68,56.4c10.4,0,15.05-4.44,15.05-16.68s-4.66-16.35-15.05-16.35h-17.44v33.03h17.44Z"/>
        <path class="st1" d="M76.2,16h42.13v7.47h-34.22v27.4h32.38v7.47h-32.38v30.54h34.55v7.37h-42.46V16Z"/>
        <path class="st1" d="M149.53,15.46h8.34l24.69,80.8h-8.23l-5.52-18.41h-30.54l-5.42,18.41h-7.91l24.59-80.8ZM166.64,70.48l-13-43.32-13.21,43.32h26.21Z"/>
        <path class="st1" d="M192.31,16h8.12v72.89h33.36v7.37h-41.48V16Z"/>
      </g>
      <g class="st0">
        <path class="st1" d="M259.68,31.49h-21.55v-15.49h60.33v15.49h-21.66v64.77h-17.11V31.49Z"/>
        <path class="st1" d="M333.23,69.4h-10.61v26.86h-16.68V16h30.65c19.28,0,26.43,9.31,26.43,25.56,0,11.81-3.79,21.23-13.43,25.45l12.89,29.24h-17.76l-11.48-26.86ZM336.15,54.56c7.36,0,10.29-3.25,10.29-11.81s-2.92-11.8-10.29-11.8h-13.54v23.61h13.54Z"/>
        <path class="st1" d="M373.52,16h49.5v15.49h-32.92v16.03h31.52v15.38h-31.52v18.2h33.03v15.16h-49.6V16Z"/>
        <path class="st1" d="M433.85,16h17.98l26.32,46.25V16h16.14v80.26h-15.6l-28.7-50.04v50.04h-16.14V16Z"/>
        <path class="st1" d="M506.74,16h25.02c25.45,0,35.31,9.42,35.31,40.07s-9.64,40.18-35.31,40.18h-25.02V16ZM533.27,81.53c11.8,0,16.57-4.77,16.57-25.34s-4.66-24.69-17-24.69h-9.1v50.04h9.53Z"/>
        <path class="st1" d="M569.23,89.98l8.56-13c4.44,2.82,11.91,5.74,21.34,5.74s12.24-2.92,12.24-8.23c0-7.04-3.68-8.12-16.79-12.24-14.73-4.55-21.77-10.5-21.77-23.61,0-15.71,9.96-23.61,27.73-23.61,11.16,0,18.2,1.95,24.58,4.98l-7.36,14.51c-3.79-1.84-9.21-3.57-16.79-3.57-8.12,0-11.59,2.06-11.59,7.15,0,5.52,3.14,6.82,12.78,9.96,19.17,6.17,25.67,10.4,25.67,26.1,0,14.19-8.66,23.07-28.27,23.07-13.32,0-23.07-2.49-30.33-7.26Z"/>
      </g>
    </g>
    <g>
      <g>
        <path class="st1" d="M688.33,16.14l-16.01,55.97-16.35-55.97h-17.2l24.25,80.46h17.95l24.36-80.46h-17Z"/>
        <path class="st1" d="M729.15,80.96v-18.12h31.09v-15.31h-31.09v-15.96h32.47v-15.42h-48.82v79.91h48.93v-15.1h-32.58,0Z"/>
        <path class="st1" d="M828.59,41.6c0-16.18-7.04-25.46-26.06-25.46h-30.23v79.91h16.44v-26.73h10.48l11.31,26.73h17.53l-12.72-29.12c9.51-4.2,13.25-13.57,13.25-25.33h0ZM802.1,54.54h-13.35v-23.5h13.35c7.27,0,10.16,3.12,10.16,11.74s-2.89,11.76-10.16,11.76Z"/>
        <path class="st1" d="M839.92,16.14v79.91h16.66V16.14h-16.66Z"/>
        <path class="st1" d="M918.86,31.56v-15.42h-48.93v79.91h16.78v-31.91h30.66v-15.31h-30.66v-17.27h32.15,0Z"/>
        <path class="st1" d="M928.9,16.14v79.91h16.67V16.14h-16.67Z"/>
        <path class="st1" d="M975.26,80.96v-18.12h31.09v-15.31h-31.09v-15.96h32.49v-15.42h-48.82v79.91h48.93v-15.1h-32.6Z"/>
        <path class="st1" d="M1077.93,56.04c0-5.43-.31-10.19-.97-14.35v-.06l-16.12,19.18s0,.06-.02.09c-.37,8.55-1.84,13.75-4.69,16.76,0,.02-.02.03-.03.05l5.01,4.78,16.63-19.56.02-.03s0-.03-.02-.05c.12-2.14.18-4.41.18-6.8h0ZM1044.6,81.39h-9.41V31.56h8.97c10.59,0,15.44,3.18,16.52,17.42l13.91-16.52c-4.67-12.07-14.61-16.32-31.5-16.32h-24.67v79.91h24.67c7.44,0,13.52-.76,18.4-2.64l-12.88-12.27c-1.23.17-2.57.25-4.01.25Z"/>
      </g>
      <polygon class="st1" points="1105.86 29.85 1077.76 62.88 1077.75 62.91 1061.12 82.48 1056.11 77.7 1038.08 60.51 1038.11 60.48 1047.98 49.91 1060.24 61.59 1060.83 60.9 1076.96 41.69 1095.08 20.14 1105.82 29.82 1105.86 29.85"/>
    </g>
  </g>
  <g>
    <g class="st0">
      <g class="st0">
        <path class="st1" d="M462.01,175.8l15.1-16.23c8.77-9.42,9.74-11.69,9.74-16.8,0-4.38-1.87-6.41-7.71-6.41-4.3,0-8.77,1.3-11.93,2.84l-5.28-10.31c4.54-2.27,10.15-4.22,19.32-4.22,12.9,0,17.94,5.6,17.94,16.23,0,9.42-2.35,13.39-13.39,25.4l-7.87,8.52h22.24v10.71h-38.15v-9.74Z"/>
        <path class="st1" d="M507.86,155.51c0-18.99,2.52-30.84,22.16-30.84s21.91,12.09,21.91,30.84-2.52,30.76-21.91,30.76-22.16-11.44-22.16-30.76ZM539.35,155.51c0-13.72-1.46-18.99-9.33-18.99s-9.5,5.28-9.5,18.99,1.46,19.4,9.5,19.4,9.33-5.6,9.33-19.4Z"/>
        <path class="st1" d="M557.86,175.8l15.1-16.23c8.77-9.42,9.74-11.69,9.74-16.8,0-4.38-1.87-6.41-7.71-6.41-4.3,0-8.77,1.3-11.93,2.84l-5.28-10.31c4.54-2.27,10.14-4.22,19.32-4.22,12.9,0,17.94,5.6,17.94,16.23,0,9.42-2.35,13.39-13.39,25.4l-7.87,8.52h22.24v10.71h-38.15v-9.74Z"/>
        <path class="st1" d="M601.44,181.73l5.52-10.06c4.14,2.27,8.04,3.41,14.2,3.41s9.42-1.46,9.42-9.58-3.08-9.42-8.6-9.42c-3.98,0-6.41.81-8.52,2.11l-9.5-2.76,1.62-30.03h34.41v11.2h-23.94l-.57,10.71c2.11-1.22,5.44-2.03,11.04-2.03,11.36,0,16.39,4.54,16.39,19.97,0,17.53-7.47,21.02-20.94,21.02-8.68,0-15.1-1.54-20.53-4.54Z"/>
      </g>
    </g>
    <g>
      <rect class="st1" x="721.9" y="147.86" width="18.53" height="18.71"/>
      <rect class="st1" x="761.82" y="151.66" width="11" height="11.11"/>
      <rect class="st1" x="673.65" y="143.65" width="26.87" height="27.13"/>
    </g>
    <g>
      <rect class="st1" x="373.28" y="147.86" width="18.53" height="18.71"/>
      <rect class="st1" x="340.9" y="151.66" width="11" height="11.11"/>
      <rect class="st1" x="413.2" y="143.65" width="26.87" height="27.13"/>
    </g>
  </g>
</svg>